<svg xmlns="http://www.w3.org/2000/svg" viewBox="0 0 53 53"><defs><style>.cls-1{fill:#fffcf7;}.cls-2{fill:blue;}</style></defs><g id="Icons"><circle class="cls-1" cx="28" cy="28" r="23.5"/><path class="cls-2" d="M28,6A22,22,0,1,1,6,28,22,22,0,0,1,28,6m0-3A25,25,0,1,0,53,28,25,25,0,0,0,28,3Z"/><path class="cls-2" d="M30.31,31.35c.46,2,1.49,1.23,1.7,2.14.32,1.36-2.68,2-3.55,2.23s-3.55.82-3.83-.38c-.16-.67.5-.8.42-2a13.76,13.76,0,0,0-.38-2.37c-.27-1.17-.8-3.37-2.46-3-1.43.33-1.1,1.53-.86,2.58L22,33.25c.45,1.94,1.29,1.33,1.49,2.17.31,1.35-2.35,2-3.24,2.2-3.34.77-4.28.25-4.45-.48-.21-.93.8-.72.84-2.34a34.62,34.62,0,0,0-1-5.53c-.24-1.06-.56-2.12-.83-3.16-.43-1.65-1.7-.74-2-1.84-.43-1.87,5.54-3.77,5.56-3.77.7-.17.8,0,.95.71l.89,4.48c.08.45.23,1.2.84,1.06s.52-2.31,3.14-2.92c4.3-1,4.93,3.13,5.11,3.78Z"/><path class="cls-2" d="M38.9,27.71c.37,1.57,1.11,1.79,1.74,1.65s1-.8,1.44-.9,1,.47,1.05.89c.35,1.54-2,3.52-4.36,4.06a4,4,0,0,1-5.17-3.27l-1.11-4.81c-.1-.42-.13-.59-.27-.63a3,3,0,0,0-.91.19c-.61.14-.91.23-1,.14s-.21-.37-.34-.91c-.07-.32-.2-.57,0-.82l4.55-4.62c.47-.45.46-.38,1.16-.54.94-.21,1-.32,1.21.76a7.55,7.55,0,0,0,.47,1.71c.11.17.28.13.88,0l1.64-.37c1-.24,1-.17,1.27.89.3,1.33.16,1.46-.75,1.67l-1.61.37c-.82.19-.87.23-.67,1.07Z"/></g></svg>